<svg width="184" height="184" viewBox="0 0 184 184" fill="none" xmlns="http://www.w3.org/2000/svg">
<rect width="184" height="184" fill="white"/>
<path d="M65.1722 95.0433L65.9812 93.8662C66.6169 94.3031 67.7125 93.8689 68.3719 92.9095C69.0312 91.9502 69.0439 90.7717 68.4083 90.3348C67.7608 89.8898 67.1047 90.3401 65.9029 91.4206C64.7334 92.454 63.277 93.7408 61.6408 92.6163C60.5872 91.8922 60.2873 90.4121 60.8082 89.0111L59.5252 88.1292L60.7387 86.3635L62.0218 87.2454C63.1431 86.2569 64.6324 86.0065 65.6859 86.7306L64.8769 87.9077C64.2412 87.4709 63.1455 87.9051 62.4862 88.8644C61.8268 89.8238 61.8141 91.0023 62.4498 91.4391C63.0972 91.8841 63.7533 91.4338 64.9552 90.3533C66.1247 89.32 67.5811 88.0331 69.2173 89.1577C70.2708 89.8817 70.5708 91.3618 70.0498 92.7629L71.3329 93.6447L70.1194 95.4104L68.8363 94.5286C67.715 95.5171 66.2257 95.7674 65.1722 95.0433Z" fill="#2C7EA1"/>
<path fill-rule="evenodd" clip-rule="evenodd" d="M101.065 48.7914L98.2739 51.5836L117.697 71.2913C128.381 82.1306 141.372 95.1116 146.567 100.139L156.012 109.278L158.708 106.583C160.734 104.556 161.273 103.378 160.881 101.835C160.25 99.3556 106.997 46 105.153 46C104.44 46 102.601 47.2567 101.065 48.7914ZM49.8855 73.7705C33.1887 90.4733 23 101.307 23 102.355C23 104.653 53.4079 135.198 55.6956 135.198C56.7616 135.198 62.1022 130.315 69.8047 122.3C76.6223 115.206 84.4586 107.472 87.2194 105.113L92.239 100.826L109.441 118.012C120.169 128.729 127.293 135.198 128.37 135.198C130.18 135.198 148.053 118.073 148.053 116.339C148.053 115.809 132.866 99.9625 114.305 81.125C90.5136 56.9784 79.9987 46.8745 78.6642 46.8745C77.3463 46.8745 68.5962 55.0528 49.8855 73.7705ZM71.9367 81.536C76.9397 84.4909 78.7604 91.6539 75.788 96.6857C72.8558 101.651 65.9823 103.438 60.5744 100.641C53.6283 97.0486 53.7472 85.1852 60.7694 81.2885C63.5984 79.7179 69.0649 79.8395 71.9367 81.536Z" fill="#2C7EA1"/>
</svg>
